HIERARCHY
ROOT Hips
{
	OFFSET 0.00000 0.00000 0.00000
	CHANNELS 6 Xposition Yposition Zposition Zrotation Yrotation Xrotation 
	JOINT RightUpLegDummy
	{
		OFFSET 0 0 0
		CHANNELS 3 Zrotation Yrotation Xrotation
		JOINT RightUpLeg
		{
			OFFSET -3.52197 -3.41223 0.04002
			CHANNELS 3 Zrotation Yrotation Xrotation
			JOINT RightLeg
			{
				OFFSET 0.00006 -17.42390 1.60435
				CHANNELS 3 Zrotation Yrotation Xrotation
				JOINT RightFoot
				{
					OFFSET 0.06154 -16.50078 -1.63900
					CHANNELS 3 Zrotation Yrotation Xrotation
					JOINT RightToes
					{
						OFFSET 0.00298 -1.73825 3.34613
						CHANNELS 3 Zrotation Yrotation Xrotation
						End Site
						{
							OFFSET 0.00480 -0.05416 3.85043
						}
					}
				}
			}
		}
	}
	JOINT SpineDummy
	{
		OFFSET 0 0 0
		CHANNELS 3 Zrotation Yrotation Xrotation
		JOINT Spine
		{
			OFFSET 0.00000 4.68130 0.00000
			CHANNELS 3 Zrotation Yrotation Xrotation
			JOINT Spine1
			{
				OFFSET -0.00000 10.10138 0.05002
				CHANNELS 3 Zrotation Yrotation Xrotation
				JOINT HEadDummy
				{
					OFFSET 0 0 0
					CHANNELS 3 Zrotation Yrotation Xrotation
					JOINT Head
					{
						OFFSET -0.00000 3.43865 0.00438
						CHANNELS 3 Zrotation Yrotation Xrotation
						End Site
						{
							OFFSET -0.11417 5.02924 0.98962
						}
					}
				}
				JOINT LeftShoulder1Dummy
				{
					OFFSET 0 0 0
					CHANNELS 3 Zrotation Yrotation Xrotation
					JOINT LeftShoulder1
					{
						OFFSET 3.53937 -0.14262 -0.08662
						CHANNELS 3 Zrotation Yrotation Xrotation
						JOINT LeftArm
						{
							OFFSET 4.04833 -0.00133 0.12681
							CHANNELS 3 Zrotation Yrotation Xrotation
							JOINT LeftForeArm
							{
								OFFSET 10.33880 -0.01036 -0.55515
								CHANNELS 3 Zrotation Yrotation Xrotation
								JOINT LeftHand
								{
									OFFSET 8.69677 0.07543 0.40060
									CHANNELS 3 Zrotation Yrotation Xrotation
									End Site
									{
										OFFSET 5.28377 -0.21905 0.59205
									}
								}
							}
						}
					}
				}
				JOINT RightShoulderDummy
				{
					OFFSET 0 0 0
					CHANNELS 3 Zrotation Yrotation Xrotation
					JOINT RightShoulder
					{
						OFFSET -3.53937 -0.14262 -0.08660
						CHANNELS 3 Zrotation Yrotation Xrotation
						JOINT RightArm
						{
							OFFSET -4.04833 -0.00133 0.12683
							CHANNELS 3 Zrotation Yrotation Xrotation
							JOINT RightForeArm
							{
								OFFSET -10.37987 -0.01039 -0.55511
								CHANNELS 3 Zrotation Yrotation Xrotation
								JOINT RightHand
								{
									OFFSET -8.67398 0.07538 0.40058
									CHANNELS 3 Zrotation Yrotation Xrotation
									End Site
									{
										OFFSET -5.24810 -0.21916 0.59204
									}
								}
							}
						}
					}
				}
			}
		}
	}
	JOINT LeftUpLegDummy
	{
		OFFSET 0 0 0
		CHANNELS 3 Zrotation Yrotation Xrotation
		JOINT LeftUpLeg
		{
			OFFSET 3.52197 -3.41223 0.04002
			CHANNELS 3 Zrotation Yrotation Xrotation
			JOINT LeftLeg
			{
				OFFSET -0.00012 -17.42399 1.60337
				CHANNELS 3 Zrotation Yrotation Xrotation
				JOINT LeftFoot
				{
					OFFSET -0.09972 -16.50070 -1.63802
					CHANNELS 3 Zrotation Yrotation Xrotation
					JOINT LeftToes
					{
						OFFSET -0.01575 -1.73823 3.34611
						CHANNELS 3 Zrotation Yrotation Xrotation
						End Site
						{
							OFFSET 0.03150 -0.01868 3.85031
						}
					}
				}
			}
		}
	}
}
MOTION
Frames: 7
Frame Time: 0.033333
-4.5304 39.9588 5.0816 176.3730 34.7619 178.1590 0.0000 0.0000 0.0000 -4.0126 -0.6008 -6.1912 -3.1023 -3.9680 18.7800 8.1531 -0.4570 -5.1435 -0.0000 -0.0000 0.0000 0.0000 0.0000 0.0000 -7.7049 -3.4483 -0.4136 10.0306 -7.9295 27.0764 0.0000 0.0000 0.0000 -13.4475 30.4308 -10.8761 0.0000 0.0000 0.0000 -12.5227 -2.1349 1.1048 -57.8116 -22.8289 25.6398 1.5532 -82.5861 12.3793 16.2666 -1.0379 -0.8958 0.0000 0.0000 0.0000 16.5577 1.4198 1.1462 58.2739 3.5396 8.4385 172.8179 75.6126 140.3943 -17.1388 0.8998 -0.9233 0.0000 0.0000 0.0000 3.3760 9.1622 -5.5441 7.0566 11.8133 24.2611 -15.3196 1.5325 0.0311 0.0000 0.0000 0.0000
-4.4669 39.9320 5.1505 176.8430 34.4626 178.2570 0.0000 0.0000 0.0000 -3.4367 -0.8884 -5.9536 -3.1350 -3.9295 18.7186 8.0761 -0.4532 -5.2129 -0.0000 -0.0000 0.0000 0.0000 0.0000 0.0000 -7.4178 -3.3671 0.1184 10.3719 -7.9855 26.9683 0.0000 0.0000 0.0000 -13.2873 30.1146 -11.0355 0.0000 0.0000 0.0000 -12.1493 -2.4941 1.1546 -58.7298 -23.3518 26.0134 1.2675 -82.7381 11.7999 20.1428 -1.1568 -1.1322 0.0000 0.0000 0.0000 16.5343 1.5727 1.1807 58.7355 4.6360 9.2692 172.4945 75.2368 136.2332 -16.4547 0.5449 -0.8388 0.0000 0.0000 0.0000 4.1453 9.8603 -6.3857 6.7951 10.6475 25.8575 -15.7876 1.6379 0.4572 0.0000 0.0000 0.0000
-4.3501 39.8897 5.2542 178.0230 33.7793 178.3130 0.0000 0.0000 0.0000 -2.1322 -1.6995 -4.9117 -3.0999 -3.7481 18.1358 7.8082 -0.4345 -5.2704 -0.0000 -0.0000 0.0000 0.0000 0.0000 0.0000 -6.2726 -3.3119 1.3266 10.4178 -7.9578 26.7676 0.0000 0.0000 0.0000 -12.8446 29.4754 -11.3516 0.0000 0.0000 0.0000 -11.4713 -3.1341 1.2372 -60.5823 -24.0301 27.2798 0.2667 -83.3874 10.0461 23.0598 -1.2789 -1.3213 0.0000 0.0000 0.0000 16.5967 1.7621 1.2277 59.2413 7.0331 11.8062 172.0759 74.6398 129.6591 -14.1486 -0.4188 -0.6111 0.0000 0.0000 0.0000 5.8547 10.6351 -7.7864 6.3669 8.7334 29.0833 -16.3789 1.8844 1.7871 0.0000 0.0000 0.0000
-4.2973 39.8227 5.3109 178.3650 33.4799 178.5760 0.0000 0.0000 0.0000 -1.8092 -2.7689 -5.0188 -2.6906 -2.9760 18.2463 7.4177 -0.3869 -5.7073 -0.0000 -0.0000 0.0000 0.0000 0.0000 0.0000 -5.1341 -3.2036 1.5562 9.8823 -7.5194 26.7578 0.0000 0.0000 0.0000 -12.3530 28.8820 -11.8428 0.0000 0.0000 0.0000 -10.8275 -3.6130 1.2852 -62.9350 -24.3023 30.2363 -2.7135 -84.5250 6.7887 24.0547 -0.8785 -1.2969 0.0000 0.0000 0.0000 16.5204 1.8531 1.2451 59.3832 10.2169 16.4417 171.8285 74.1117 124.2365 -11.3120 -1.6284 -0.3757 0.0000 0.0000 0.0000 6.4549 10.6901 -9.9280 6.3034 7.6362 32.3849 -15.8283 2.0640 3.6125 0.0000 0.0000 0.0000
-4.2625 39.7563 5.3293 178.7130 33.4387 178.6960 0.0000 0.0000 0.0000 -1.4755 -3.3057 -4.9821 -2.4668 -2.5573 18.3958 7.0941 -0.3457 -6.1374 -0.0000 -0.0000 0.0000 0.0000 0.0000 0.0000 -4.0026 -2.9917 1.8394 9.2748 -6.9389 26.7052 0.0000 0.0000 0.0000 -11.9920 28.6277 -12.4375 0.0000 0.0000 0.0000 -10.5556 -3.9238 1.3230 -65.2805 -23.6401 33.7344 -7.9398 -85.6858 4.6374 28.5156 -0.6800 -1.5212 0.0000 0.0000 0.0000 16.0309 1.9325 1.2390 59.3607 13.6130 21.9338 171.9685 73.4211 122.0992 -9.9588 -2.1831 -0.2887 0.0000 0.0000 0.0000 6.8825 10.1449 -11.4057 6.2926 6.9738 34.8250 -13.7168 1.8483 4.1284 0.0000 0.0000 0.0000
-4.2439 39.7321 5.3111 178.8860 33.6648 178.6830 0.0000 0.0000 0.0000 -1.3140 -3.4308 -4.8291 -2.3716 -2.3483 18.3652 6.9228 -0.3291 -6.2920 -0.0000 -0.0000 0.0000 0.0000 0.0000 0.0000 -3.0535 -2.7160 2.0193 8.4783 -6.2623 26.7973 0.0000 0.0000 0.0000 -11.6548 28.7025 -13.0611 0.0000 0.0000 0.0000 -10.9396 -4.2703 1.4117 -66.9048 -21.7631 35.0044 -12.2533 -86.5349 5.8436 36.1615 -1.7584 -2.2747 0.0000 0.0000 0.0000 15.3056 2.0569 1.2305 59.3998 16.7963 25.9290 172.3878 72.7001 123.5869 -10.3947 -2.0343 -0.3139 0.0000 0.0000 0.0000 6.8741 9.3974 -12.0184 6.1532 6.6542 35.4518 -10.8870 1.3226 2.6062 0.0000 0.0000 0.0000
-4.2315 39.7661 5.2621 178.8260 34.0841 178.6550 0.0000 0.0000 0.0000 -1.4189 -3.4296 -4.6622 -2.2150 -2.0445 18.0400 6.8933 -0.3402 -6.0736 -0.0000 -0.0000 0.0000 0.0000 0.0000 0.0000 -2.2573 -2.3926 1.7673 7.2706 -5.4277 27.3096 0.0000 0.0000 0.0000 -11.1985 28.9027 -13.8719 0.0000 0.0000 0.0000 -11.9099 -4.5151 1.5259 -67.4099 -19.1323 33.1221 -15.8249 -87.4516 10.3542 39.8210 -2.7690 -2.8697 0.0000 0.0000 0.0000 14.8582 2.0518 1.2066 59.1995 19.5555 27.4390 172.6304 72.6271 126.4355 -10.4611 -2.1567 -0.3063 0.0000 0.0000 0.0000 6.4422 8.4340 -11.7708 5.8255 6.7093 33.5993 -9.2908 0.9142 -0.0776 0.0000 0.0000 0.0000
